<svg xmlns="http://www.w3.org/2000/svg" xmlns:xlink="http://www.w3.org/1999/xlink" viewBox="0 0 280 245" preserveAspectRatio="xMidYMid" style="display: block; shape-rendering: auto; background: transparent;" width="840" height="280"><style type="text/css">
  .ld-text text {
    text-anchor: middle;
    dominant-baseline: middle;
    font-size: 51px;
    opacity: 0;
    user-select: none;
    pointer-events: none;
  }
</style>
<g style="transform-origin:140px 122.5px;transform:scale(1)" class="ld-text">
<g transform="translate(140,122.5)">
  <g transform="scale(0.6375) translate(0,0)"><g class="path" style="opacity: 1; transform-origin: -173.28px 13.27px; transform: matrix3d(1, 0, 0, 0, 0, 1, 0, 0, 0, 0, 1, 0, 0, 0, 0, 1); animation: 5.88235s linear -3.58371s infinite normal forwards running animate-atfgmpknfi; transform-box: view-box;"><path d="M24.64 42.06L7.84-7.06L3.28-7.06L3.28 48.94L7.84 48.94L7.84 6.14L22.24 48.94L27.12 48.94L41.76 6.14L41.76 48.94L46.24 48.94L46.24-7.06L41.76-7.06L24.64 42.06" style="fill: rgb(253, 174, 107);" transform="translate(-198.040,-24.469)"></path></g><g class="path" style="opacity: 1; transform-origin: -130.72px 17.08px; transform: matrix3d(1, 0, 0, 0, 0, 1, 0, 0, 0, 0, 1, 0, 0, 0, 0, 1); animation: 5.88235s linear -3.28507s infinite normal forwards running animate-atfgmpknfi; transform-box: view-box;"><path d="M57.36 38.22L57.36 38.22L57.36 33.26L81.76 31.98L81.76 21.58Q81.76 17.10 80.04 14.14Q78.32 11.18 75.16 9.66Q72 8.14 67.68 8.14L67.68 8.14Q63.44 8.14 60.08 9.66Q56.72 11.18 54.80 14.22Q52.88 17.26 52.88 21.82L52.88 21.82L52.88 38.22Q52.88 41.58 53.88 43.82Q54.88 46.06 56.72 47.42Q58.56 48.78 61.12 49.34Q63.68 49.90 66.72 49.90L66.72 49.90Q69.76 49.90 73.28 48.90Q76.80 47.90 79.76 46.14L79.76 46.14L78 42.70Q75.04 44.22 72.16 45.14Q69.28 46.06 66.32 46.06L66.32 46.06Q64.40 46.06 62.76 45.62Q61.12 45.18 59.92 44.26Q58.72 43.34 58.04 41.86Q57.36 40.38 57.36 38.22 zM77.28 21.02L77.28 21.02L77.28 27.98L57.36 28.86L57.36 21.90Q57.36 18.70 58.60 16.46Q59.84 14.22 62.16 13.06Q64.48 11.90 67.60 11.90L67.60 11.90Q70.40 11.90 72.56 13.02Q74.72 14.14 76 16.18Q77.28 18.22 77.28 21.02" style="fill: rgb(253, 141, 60);" transform="translate(-198.040,-24.469)"></path></g><g class="path" style="opacity: 1; transform-origin: -95.12px 16.31px; transform: matrix3d(1, 0, 0, 0, 0, 1, 0, 0, 0, 0, 1, 0, 0, 0, 0, 1); animation: 5.88235s linear -2.98643s infinite normal forwards running animate-atfgmpknfi; transform-box: view-box;"><path d="M113.28 21.58L113.28 21.58L113.28 48.94L117.68 48.94L117.68 21.34Q117.68 18.78 117.08 16.74Q116.48 14.70 115.32 13.10Q114.16 11.50 112.48 10.38Q110.80 9.26 108.60 8.70Q106.40 8.14 103.76 8.14L103.76 8.14Q101.76 8.14 99.80 8.58Q97.84 9.02 96.04 9.78Q94.24 10.54 92.72 11.58L92.72 11.58L92.72 8.86L88.16 8.86L88.16 48.94L92.72 48.94L92.72 14.94Q94.40 13.98 96 13.38Q97.60 12.78 99.32 12.46Q101.04 12.14 102.88 12.14L102.88 12.14Q104.80 12.14 106.64 12.62Q108.48 13.10 110 14.18Q111.52 15.26 112.40 17.06Q113.28 18.86 113.28 21.58" style="fill: rgb(230, 85, 13);" transform="translate(-198.040,-24.469)"></path></g><g class="path" style="opacity: 1; transform-origin: -66.56px 14.1px; transform: matrix3d(1, 0, 0, 0, 0, 1, 0, 0, 0, 0, 1, 0, 0, 0, 0, 1); animation: 5.88235s linear -2.68778s infinite normal forwards running animate-atfgmpknfi; transform-box: view-box;"><path d="M128.88 38.38L128.88 38.38L128.88 13.10L136.64 13.10L138.56 8.94L128.88 8.94L128.88-7.06L124.40-7.06L124.40 38.38Q124.40 43.02 126.40 45.82Q128.40 48.62 132.80 49.98L132.80 49.98L134.16 46.54Q132.40 45.90 131.24 44.82Q130.08 43.74 129.48 42.10Q128.88 40.46 128.88 38.38" style="fill: rgb(166, 54, 3);" transform="translate(-198.040,-24.469)"></path></g><g class="path" style="opacity: 1; transform-origin: -43.2px 16.97px; transform: matrix3d(1, 0, 0, 0, 0, 1, 0, 0, 0, 0, 1, 0, 0, 0, 0, 1); animation: 5.88235s linear -2.38914s infinite normal forwards running animate-atfgmpknfi; transform-box: view-box;"><path d="M165.76 20.94L165.76 20.94Q163.92 19.82 161.64 18.86Q159.36 17.90 156.88 17.30Q154.40 16.70 151.76 16.70L151.76 16.70Q149.36 16.70 147.16 17.34Q144.96 17.98 143.20 19.38Q141.44 20.78 140.44 23.10Q139.44 25.42 139.44 28.78L139.44 28.78L139.44 35.42Q139.44 39.82 140.84 42.70Q142.24 45.58 144.68 47.14Q147.12 48.70 150.44 49.26Q153.76 49.82 157.60 49.74L157.60 49.74Q158.80 49.74 160.44 49.66Q162.08 49.58 163.80 49.46Q165.52 49.34 167 49.22Q168.48 49.10 169.40 49.02Q170.32 48.94 170.24 48.94L170.24 48.94L170.24 25.90Q170.24 20.94 169.44 17.54Q168.64 14.14 166.76 12.10Q164.88 10.06 161.68 9.14Q158.48 8.22 153.60 8.22L153.60 8.22L153.44 11.66Q155.84 11.66 158.08 12.02Q160.32 12.38 162.04 13.34Q163.76 14.30 164.76 16.14Q165.76 17.98 165.76 20.94 zM165.76 24.70L165.76 24.70L165.76 45.26Q165.76 45.26 165.40 45.30Q165.04 45.34 164.32 45.38Q163.60 45.42 162.56 45.54Q161.52 45.66 160.20 45.74Q158.88 45.82 157.28 45.90L157.28 45.90Q153.28 46.06 150.64 45.46Q148 44.86 146.52 43.46Q145.04 42.06 144.44 39.90Q143.84 37.74 143.84 34.86L143.84 34.86L143.84 28.94Q143.84 26.22 144.60 24.54Q145.36 22.86 146.56 22.02Q147.76 21.18 149.04 20.86Q150.32 20.54 151.36 20.54L151.36 20.54Q153.92 20.54 156.40 21.10Q158.88 21.66 161.28 22.62Q163.68 23.58 165.76 24.70" style="fill: rgb(253, 174, 107);" transform="translate(-198.040,-24.469)"></path></g><g class="path" style="opacity: 1; transform-origin: -14px 14.1px; transform: matrix3d(1, 0, 0, 0, 0, 1, 0, 0, 0, 0, 1, 0, 0, 0, 0, 1); animation: 5.88235s linear -2.0905s infinite normal forwards running animate-atfgmpknfi; transform-box: view-box;"><path d="M181.44 38.38L181.44 38.38L181.44 13.10L189.20 13.10L191.12 8.94L181.44 8.94L181.44-7.06L176.96-7.06L176.96 38.38Q176.96 43.02 178.96 45.82Q180.96 48.62 185.36 49.98L185.36 49.98L186.72 46.54Q184.96 45.90 183.80 44.82Q182.64 43.74 182.04 42.10Q181.44 40.46 181.44 38.38" style="fill: rgb(253, 141, 60);" transform="translate(-198.040,-24.469)"></path></g><g class="path" style="opacity: 1; transform-origin: 34.12px 13.27px; transform: matrix3d(1, 0, 0, 0, 0, 1, 0, 0, 0, 0, 1, 0, 0, 0, 0, 1); animation: 5.88235s linear -1.79186s infinite normal forwards running animate-atfgmpknfi; transform-box: view-box;"><path d="M218.80-7.06L218.80 48.94L245.36 48.94L245.36 44.94L223.36 44.94L223.36 20.38L237.12 20.38L238.56 15.98L223.36 15.98L223.36-2.90L245.52-2.90L245.52-7.06L218.80-7.06" style="fill: rgb(230, 85, 13);" transform="translate(-198.040,-24.469)"></path></g><g class="path" style="opacity: 1; transform-origin: 68.32px 16.31px; transform: matrix3d(1, 0, 0, 0, 0, 1, 0, 0, 0, 0, 1, 0, 0, 0, 0, 1); animation: 5.88235s linear -1.49321s infinite normal forwards running animate-atfgmpknfi; transform-box: view-box;"><path d="M276.72 21.58L276.72 21.58L276.72 48.94L281.12 48.94L281.12 21.34Q281.12 18.78 280.52 16.74Q279.92 14.70 278.76 13.10Q277.60 11.50 275.92 10.38Q274.24 9.26 272.04 8.70Q269.84 8.14 267.20 8.14L267.20 8.14Q265.20 8.14 263.24 8.58Q261.28 9.02 259.48 9.78Q257.68 10.54 256.16 11.58L256.16 11.58L256.16 8.86L251.60 8.86L251.60 48.94L256.16 48.94L256.16 14.94Q257.84 13.98 259.44 13.38Q261.04 12.78 262.76 12.46Q264.48 12.14 266.32 12.14L266.32 12.14Q268.24 12.14 270.08 12.62Q271.92 13.10 273.44 14.18Q274.96 15.26 275.84 17.06Q276.72 18.86 276.72 21.58" style="fill: rgb(166, 54, 3);" transform="translate(-198.040,-24.469)"></path></g><g class="path" style="opacity: 1; transform-origin: 104.44px 29.81px; transform: matrix3d(1, 0, 0, 0, 0, 1, 0, 0, 0, 0, 1, 0, 0, 0, 0, 1); animation: 5.88235s linear -1.19457s infinite normal forwards running animate-atfgmpknfi; transform-box: view-box;"><path d="M317.28 54.06L317.28 54.06L317.28 8.94L312.72 8.94L312.72 12.70Q310.96 11.26 309.08 10.26Q307.20 9.26 305.24 8.74Q303.28 8.22 301.36 8.14L301.36 8.14Q296.96 7.90 293.92 9.46Q290.88 11.02 289.28 14.02Q287.68 17.02 287.68 21.26L287.68 21.26L287.68 34.86Q287.68 42.14 291.20 46.02Q294.72 49.90 301.44 49.90L301.44 49.90Q303.28 49.90 305 49.46Q306.72 49.02 308.24 48.22Q309.76 47.42 310.92 46.34Q312.08 45.26 312.72 44.06L312.72 44.06L312.72 53.98Q312.72 55.58 312.36 56.90Q312 58.22 311.36 59.26Q310.72 60.30 309.72 61.06Q308.72 61.82 307.36 62.38L307.36 62.38L308.64 65.82Q311.68 64.86 313.60 63.34Q315.52 61.82 316.40 59.54Q317.28 57.26 317.28 54.06 zM312.72 17.50L312.72 17.50L312.72 35.02Q312.72 37.58 311.88 39.58Q311.04 41.58 309.52 42.94Q308 44.30 306 45.02Q304 45.74 301.68 45.74L301.68 45.74Q298.64 45.74 296.52 44.62Q294.40 43.50 293.28 41.26Q292.16 39.02 292.16 35.58L292.16 35.58L292.16 21.50Q292.16 18.78 293.04 16.90Q293.92 15.02 295.40 13.94Q296.88 12.86 298.68 12.42Q300.48 11.98 302.32 12.14L302.32 12.14Q303.60 12.22 305.04 12.62Q306.48 13.02 307.96 13.70Q309.44 14.38 310.68 15.34Q311.92 16.30 312.72 17.50" style="fill: rgb(253, 174, 107);" transform="translate(-198.040,-24.469)"></path></g><g class="path" style="opacity: 1; transform-origin: 127.92px 16.45px; transform: matrix3d(1, 0, 0, 0, 0, 1, 0, 0, 0, 0, 1, 0, 0, 0, 0, 1); animation: 5.88235s linear -0.895928s infinite normal forwards running animate-atfgmpknfi; transform-box: view-box;"><path d="M323.68 8.86L323.68 48.94L328.24 48.94L328.24 8.86L323.68 8.86" style="fill: rgb(253, 141, 60);" transform="translate(-198.040,-24.469)"></path></g><g class="path" style="opacity: 1; transform-origin: 127.96px -28.04px; transform: matrix3d(1, 0, 0, 0, 0, 1, 0, 0, 0, 0, 1, 0, 0, 0, 0, 1); animation: 5.88235s linear -0.597285s infinite normal forwards running animate-atfgmpknfi; transform-box: view-box;"><path d="M326-7.86L326-7.86Q324.96-7.86 324.12-7.06Q323.28-6.26 323.28-5.14L323.28-5.14Q323.28-4.10 324.12-3.30Q324.96-2.50 326-2.50L326-2.50Q327.12-2.50 327.92-3.30Q328.72-4.10 328.72-5.14L328.72-5.14Q328.72-6.26 327.92-7.06Q327.12-7.86 326-7.86" style="fill: rgb(230, 85, 13);" transform="translate(-198.040,-24.469)"></path></g><g class="path" style="opacity: 1; transform-origin: 151.2px 16.31px; transform: matrix3d(1, 0, 0, 0, 0, 1, 0, 0, 0, 0, 1, 0, 0, 0, 0, 1); animation: 5.88235s linear -0.298643s infinite normal forwards running animate-atfgmpknfi; transform-box: view-box;"><path d="M359.60 21.58L359.60 21.58L359.60 48.94L364 48.94L364 21.34Q364 18.78 363.40 16.74Q362.80 14.70 361.64 13.10Q360.48 11.50 358.80 10.38Q357.12 9.26 354.92 8.70Q352.72 8.14 350.08 8.14L350.08 8.14Q348.08 8.14 346.12 8.58Q344.16 9.02 342.36 9.78Q340.56 10.54 339.04 11.58L339.04 11.58L339.04 8.86L334.48 8.86L334.48 48.94L339.04 48.94L339.04 14.94Q340.72 13.98 342.32 13.38Q343.92 12.78 345.64 12.46Q347.36 12.14 349.20 12.14L349.20 12.14Q351.12 12.14 352.96 12.62Q354.80 13.10 356.32 14.18Q357.84 15.26 358.72 17.06Q359.60 18.86 359.60 21.58" style="fill: rgb(166, 54, 3);" transform="translate(-198.040,-24.469)"></path></g><g class="path" style="opacity: 1; transform-origin: 186.88px 17.08px; transform: matrix3d(1, 0, 0, 0, 0, 1, 0, 0, 0, 0, 1, 0, 0, 0, 0, 1); animation: 5.88235s linear 0s infinite normal forwards running animate-atfgmpknfi; transform-box: view-box;"><path d="M374.96 38.22L374.96 38.22L374.96 33.26L399.36 31.98L399.36 21.58Q399.36 17.10 397.64 14.14Q395.92 11.18 392.76 9.66Q389.60 8.14 385.28 8.14L385.28 8.14Q381.04 8.14 377.68 9.66Q374.32 11.18 372.40 14.22Q370.48 17.26 370.48 21.82L370.48 21.82L370.48 38.22Q370.48 41.58 371.48 43.82Q372.48 46.06 374.32 47.42Q376.16 48.78 378.72 49.34Q381.28 49.90 384.32 49.90L384.32 49.90Q387.36 49.90 390.88 48.90Q394.40 47.90 397.36 46.14L397.36 46.14L395.60 42.70Q392.64 44.22 389.76 45.14Q386.88 46.06 383.92 46.06L383.92 46.06Q382 46.06 380.36 45.62Q378.72 45.18 377.52 44.26Q376.32 43.34 375.64 41.86Q374.96 40.38 374.96 38.22 zM394.88 21.02L394.88 21.02L394.88 27.98L374.96 28.86L374.96 21.90Q374.96 18.70 376.20 16.46Q377.44 14.22 379.76 13.06Q382.08 11.90 385.20 11.90L385.20 11.90Q388 11.90 390.16 13.02Q392.32 14.14 393.60 16.18Q394.88 18.22 394.88 21.02" style="fill: rgb(253, 174, 107);" transform="translate(-198.040,-24.469)"></path></g></g><text dy="0.35em" fill="#fdae6b" font-family="Advent Pro" font-size="51">Mentat Engine</text>
</g>
</g><style type="text/css">@keyframes animate-atfgmpknfi { 0.00% {transform: translate(0.00px,0.00px) rotate(0.00deg) scale(1.00, 1.00) skew(0deg, 0.00deg) ;opacity: 1.00;}2.00% {animation-timing-function: cubic-bezier(0.20,0.39,0.50,0.97);transform: translate(0.00px,-1.08px) rotate(0.00deg) ;}36.00% {animation-timing-function: cubic-bezier(0.50,0.03,0.80,0.61);transform: translate(0.00px,-10.00px) rotate(0.00deg) ;}72.00% {transform: translate(0.00px,0.00px) rotate(0.00deg) ;}74.00% {animation-timing-function: cubic-bezier(0.23,0.43,0.48,0.91);transform: translate(0.00px,0.00px) rotate(0.00deg) scale(1.00, 0.95) ;}86.00% {animation-timing-function: cubic-bezier(0.52,0.09,0.77,0.57);transform: translate(0.00px,0.00px) rotate(0.00deg) scale(1.00, 0.80) ;}100.00% {animation-timing-function: cubic-bezier(0.52,0.09,0.77,0.57);transform: translate(0.00px,0.00px) rotate(0.00deg) scale(1.00, 1.00) ;} }</style><!-- [ldio] generated by https://loading.io --></svg>